# xmcd
#
# Track frame offsets:
#	150
#	20781
#	38926
#	60845
#	77856
#	116264
#	138066
#	163183
#	192630
#	197830
#	217394
#	240911
#	263317
# Disc length: 3895 seconds
# Revision: 1
# Processed by: cddbd v1.5.2PL0 Copyright (c) Steve Scherf et al.
#
# Submitted via: libkcddb 0.31
#
DISCID=b10f350d
DTITLE=The Flyin' Ryan Brothers - Blue Marble
DYEAR=2005
DGENRE=Instrumental Rock
TTITLE0=Baghdad
TTITLE1=Skytrain
TTITLE2=Godzilla vs. Mothra
TTITLE3=The Road to Galway
TTITLE4=The Great Divide
TTITLE5=Gaza
TTITLE6=Blue Ridge
TTITLE7=American Beauty
TTITLE8=Snake Stretcher
TTITLE9=Valley of the Kings
TTITLE10=Avalon
TTITLE11=Babel
TTITLE12=Blowin' Free 2005
EXTD=
EXTT0=
EXTT1=
EXTT2=
EXTT3=
EXTT4=
EXTT5=
EXTT6=
EXTT7=
EXTT8=
EXTT9=
EXTT10=
EXTT11=
EXTT12=
PLAYORDER=
